<mxfile host="Electron" modified="2023-12-16T05:30:17.586Z" agent="Mozilla/5.0 (Windows NT 10.0; Win64; x64) AppleWebKit/537.36 (KHTML, like Gecko) draw.io/21.2.8 Chrome/112.0.5615.165 Electron/24.2.0 Safari/537.36" etag="Be3UDrvJQOuA0iskkZDk" version="21.2.8" type="device">
  <diagram name="Page-1" id="wdU2vlvLfLhHSGHgqa0V">
    <mxGraphModel dx="4718" dy="820" grid="1" gridSize="10" guides="1" tooltips="1" connect="1" arrows="1" fold="1" page="1" pageScale="1" pageWidth="3300" pageHeight="4681" math="0" shadow="0">
      <root>
        <mxCell id="0" />
        <mxCell id="1" parent="0" />
        <mxCell id="G5lKV5aw3DPKW_N5aaKm-4" value="" style="rounded=0;whiteSpace=wrap;html=1;fillColor=#1e1e1e;" parent="1" vertex="1">
          <mxGeometry x="310" y="1550" width="1210" height="490" as="geometry" />
        </mxCell>
        <mxCell id="IgzzJq8hHqzZI9EDabm_-2" value="" style="rounded=0;whiteSpace=wrap;html=1;fillColor=#1e1e1e;" parent="1" vertex="1">
          <mxGeometry x="470" y="190" width="900" height="840" as="geometry" />
        </mxCell>
        <mxCell id="08-NsosBbDU-mmR43x8U-6" value="&lt;font style=&quot;font-size: 18px;&quot; color=&quot;#ffffcc&quot;&gt;CMakeLists.txt&lt;/font&gt;" style="text;html=1;strokeColor=none;fillColor=none;align=center;verticalAlign=middle;whiteSpace=wrap;rounded=0;" parent="1" vertex="1">
          <mxGeometry x="700" y="140" width="150" height="30" as="geometry" />
        </mxCell>
        <mxCell id="08-NsosBbDU-mmR43x8U-31" value="&lt;span style=&quot;font-size: 70px;&quot;&gt;Dependencies: CPM&lt;/span&gt;" style="text;html=1;strokeColor=none;fillColor=none;align=center;verticalAlign=middle;whiteSpace=wrap;rounded=0;" parent="1" vertex="1">
          <mxGeometry x="-670" y="77.5" width="800" height="382.5" as="geometry" />
        </mxCell>
        <mxCell id="MFZtFx-qUxBc-n4n6ePM-2" value="&lt;span style=&quot;font-size: 33px;&quot;&gt;The test CMakeLists.txt file&lt;/span&gt;" style="rounded=0;whiteSpace=wrap;html=1;" parent="1" vertex="1">
          <mxGeometry x="620" y="1460" width="510" height="60" as="geometry" />
        </mxCell>
        <mxCell id="IgzzJq8hHqzZI9EDabm_-1" value="&lt;div style=&quot;color: rgb(212, 212, 212); background-color: rgb(30, 30, 30); font-family: Consolas, &amp;quot;Courier New&amp;quot;, monospace; font-weight: normal; font-size: 24px; line-height: 32px;&quot;&gt;&lt;div&gt;&lt;span style=&quot;color: #569cd6;&quot;&gt;include&lt;/span&gt;&lt;span style=&quot;color: #d4d4d4;&quot;&gt;(CPM)&lt;/span&gt;&lt;/div&gt;&lt;br&gt;&lt;div&gt;&lt;span style=&quot;color: #6a9955;&quot;&gt;#Bring in the Catch2 testing library&lt;/span&gt;&lt;/div&gt;&lt;div&gt;&lt;span style=&quot;color: #d4d4d4;&quot;&gt;CPMAddPackage(&lt;/span&gt;&lt;span style=&quot;color: #ce9178;&quot;&gt;&quot;gh:catchorg/Catch2#v3.4.0&quot;&lt;/span&gt;&lt;span style=&quot;color: #d4d4d4;&quot;&gt;)&lt;/span&gt;&lt;/div&gt;&lt;br&gt;&lt;div&gt;&lt;span style=&quot;color: #6a9955;&quot;&gt;#Bring in the fmt library&lt;/span&gt;&lt;/div&gt;&lt;div&gt;&lt;span style=&quot;color: #d4d4d4;&quot;&gt;CPMAddPackage(&lt;/span&gt;&lt;span style=&quot;color: #ce9178;&quot;&gt;&quot;gh:fmtlib/fmt#10.1.1&quot;&lt;/span&gt;&lt;span style=&quot;color: #d4d4d4;&quot;&gt;)&lt;/span&gt;&lt;/div&gt;&lt;br&gt;&lt;div&gt;&lt;span style=&quot;color: #6a9955;&quot;&gt;#Bring in the SFML library&lt;/span&gt;&lt;/div&gt;&lt;div&gt;&lt;span style=&quot;color: #569cd6;&quot;&gt;option&lt;/span&gt;&lt;span style=&quot;color: #d4d4d4;&quot;&gt;(BUILD_SHARED_LIBS &lt;/span&gt;&lt;span style=&quot;color: #ce9178;&quot;&gt;&quot;Build shared libraries&quot;&lt;/span&gt;&lt;span style=&quot;color: #d4d4d4;&quot;&gt; &lt;/span&gt;&lt;span style=&quot;color: #569cd6;&quot;&gt;OFF&lt;/span&gt;&lt;span style=&quot;color: #d4d4d4;&quot;&gt;)&lt;/span&gt;&lt;/div&gt;&lt;div&gt;&lt;span style=&quot;color: #d4d4d4;&quot;&gt;CPMAddPackage(&lt;/span&gt;&lt;span style=&quot;color: #ce9178;&quot;&gt;&quot;gh:SFML/SFML#2.6.1&quot;&lt;/span&gt;&lt;span style=&quot;color: #d4d4d4;&quot;&gt;)&lt;/span&gt;&lt;/div&gt;&lt;br&gt;&lt;div&gt;&lt;span style=&quot;color: #569cd6;&quot;&gt;add_subdirectory&lt;/span&gt;&lt;span style=&quot;color: #d4d4d4;&quot;&gt;(src)&lt;/span&gt;&lt;/div&gt;&lt;br&gt;&lt;div&gt;&lt;span style=&quot;color: #569cd6;&quot;&gt;add_executable&lt;/span&gt;&lt;span style=&quot;color: #d4d4d4;&quot;&gt;(rooster main.cpp)&lt;/span&gt;&lt;/div&gt;&lt;div&gt;&lt;span style=&quot;color: #569cd6;&quot;&gt;target_link_libraries&lt;/span&gt;&lt;span style=&quot;color: #d4d4d4;&quot;&gt;(rooster PRIVATE run_app)&lt;/span&gt;&lt;/div&gt;&lt;br&gt;&lt;div&gt;&lt;span style=&quot;color: #569cd6;&quot;&gt;add_executable&lt;/span&gt;&lt;span style=&quot;color: #d4d4d4;&quot;&gt;(gui gui.cpp)&lt;/span&gt;&lt;/div&gt;&lt;div&gt;&lt;span style=&quot;color: #569cd6;&quot;&gt;target_link_libraries&lt;/span&gt;&lt;span style=&quot;color: #d4d4d4;&quot;&gt;(gui PRIVATE sfml-graphics)&lt;/span&gt;&lt;/div&gt;&lt;br&gt;&lt;div&gt;&lt;span style=&quot;color: #569cd6;&quot;&gt;add_executable&lt;/span&gt;&lt;span style=&quot;color: #d4d4d4;&quot;&gt;(use_fmt use_fmt.cpp)&lt;/span&gt;&lt;/div&gt;&lt;div&gt;&lt;span style=&quot;color: #569cd6;&quot;&gt;target_link_libraries&lt;/span&gt;&lt;span style=&quot;color: #d4d4d4;&quot;&gt;(use_fmt PRIVATE fmt)&lt;/span&gt;&lt;/div&gt;&lt;/div&gt;" style="text;whiteSpace=wrap;html=1;" parent="1" vertex="1">
          <mxGeometry x="560" y="235" width="720" height="750" as="geometry" />
        </mxCell>
        <mxCell id="G5lKV5aw3DPKW_N5aaKm-1" value="&lt;div style=&quot;color: rgb(212, 212, 212); background-color: rgb(30, 30, 30); font-family: Consolas, &amp;quot;Courier New&amp;quot;, monospace; font-weight: normal; font-size: 24px; line-height: 32px;&quot;&gt;&lt;div&gt;&lt;span style=&quot;color: #569cd6;&quot;&gt;add_executable&lt;/span&gt;&lt;span style=&quot;color: #d4d4d4;&quot;&gt;(&lt;/span&gt;&lt;/div&gt;&lt;div&gt;&lt;span style=&quot;color: #d4d4d4;&quot;&gt;&amp;nbsp; unit_tests&lt;/span&gt;&lt;/div&gt;&lt;div&gt;&lt;span style=&quot;color: #d4d4d4;&quot;&gt;&amp;nbsp; test_calc.cpp&lt;/span&gt;&lt;/div&gt;&lt;div&gt;&lt;span style=&quot;color: #d4d4d4;&quot;&gt;&amp;nbsp; test_run_app.cpp&lt;/span&gt;&lt;/div&gt;&lt;div&gt;&lt;span style=&quot;color: #d4d4d4;&quot;&gt;)&lt;/span&gt;&lt;/div&gt;&lt;div&gt;&lt;span style=&quot;color: #569cd6;&quot;&gt;target_link_libraries&lt;/span&gt;&lt;span style=&quot;color: #d4d4d4;&quot;&gt;(&lt;/span&gt;&lt;/div&gt;&lt;div&gt;&lt;span style=&quot;color: #d4d4d4;&quot;&gt;&amp;nbsp; unit_tests PRIVATE run_app Catch2::Catch2WithMain)&lt;/span&gt;&lt;/div&gt;&lt;br&gt;&lt;div&gt;&lt;span style=&quot;color: #569cd6;&quot;&gt;list&lt;/span&gt;&lt;span style=&quot;color: #d4d4d4;&quot;&gt;(APPEND CMAKE_MODULE_PATH &lt;/span&gt;&lt;span style=&quot;color: #569cd6;&quot;&gt;${CMAKE_SOURCE_DIR}&lt;/span&gt;&lt;span style=&quot;color: #d4d4d4;&quot;&gt;/build/_deps/catch2-src/extras)&lt;/span&gt;&lt;/div&gt;&lt;div&gt;&lt;span style=&quot;color: #569cd6;&quot;&gt;include&lt;/span&gt;&lt;span style=&quot;color: #d4d4d4;&quot;&gt;(Catch)&lt;/span&gt;&lt;/div&gt;&lt;div&gt;&lt;span style=&quot;color: #d4d4d4;&quot;&gt;catch_discover_tests(unit_tests)&lt;/span&gt;&lt;/div&gt;&lt;/div&gt;" style="text;whiteSpace=wrap;html=1;" parent="1" vertex="1">
          <mxGeometry x="375" y="1590" width="1060" height="360" as="geometry" />
        </mxCell>
        <mxCell id="G5lKV5aw3DPKW_N5aaKm-2" value="&lt;span style=&quot;font-size: 33px;&quot;&gt;Pull deps through PCM&lt;/span&gt;" style="rounded=0;whiteSpace=wrap;html=1;" parent="1" vertex="1">
          <mxGeometry x="650" y="120" width="510" height="60" as="geometry" />
        </mxCell>
        <mxCell id="rIoZBRPLJod1uaYZIEwE-2" value="" style="triangle;whiteSpace=wrap;html=1;rotation=-90;fillColor=#e51400;fontColor=#ffffff;strokeColor=#B20000;" vertex="1" parent="1">
          <mxGeometry x="280" y="1820" width="80" height="80" as="geometry" />
        </mxCell>
        <mxCell id="rIoZBRPLJod1uaYZIEwE-4" value="&lt;font color=&quot;#ffffff&quot; style=&quot;font-size: 60px;&quot;&gt;!&lt;/font&gt;" style="text;html=1;strokeColor=none;fillColor=none;align=center;verticalAlign=middle;whiteSpace=wrap;rounded=0;" vertex="1" parent="1">
          <mxGeometry x="290" y="1850" width="60" height="30" as="geometry" />
        </mxCell>
      </root>
    </mxGraphModel>
  </diagram>
</mxfile>
